<svg width="171" height="78" viewBox="0 0 171 78" fill="none" xmlns="http://www.w3.org/2000/svg">
<path d="M1 0.999999V15H4.5V4.76923H15V0.999999H1Z" fill="currentColor" stroke="currentColor"/>
<path d="M1 77V63H4.5V73.2308H15V77H1Z" fill="currentColor" stroke="currentColor"/>
<path d="M170 0.999999V15H166.5V4.76923H156V0.999999H170Z" fill="currentColor" stroke="currentColor"/>
<path d="M170 77V63H166.5V73.2308H156V77H170Z" fill="currentColor" stroke="currentColor"/>
<path d="M134.666 63H126.699C126.285 63 126.078 62.8526 126.078 62.5579L126 18.5053C126 18.1684 126.207 18 126.622 18H133.811L147.256 43.4842L146.868 18.5053C146.868 18.1684 147.101 18 147.567 18H155.456C155.767 18 155.922 18.1684 155.922 18.5053L156 62.6211C156 62.8737 155.87 63 155.611 63H148.617L134.821 39.1895L135.404 62.4947C135.404 62.8316 135.158 63 134.666 63Z" fill="currentColor"/>
<path d="M58.9813 64C56.2167 64 53.6887 63.4024 51.3973 62.2071C49.1308 61.0118 47.325 59.411 45.9801 57.4046C44.66 55.3769 44 53.1251 44 50.6492L44.0747 30.1907C44.0747 27.7575 44.7223 25.559 46.0174 23.5954C47.3126 21.6104 49.0934 20.0202 51.3599 18.8249C53.6513 17.6083 56.1918 17 58.9813 17C61.8207 17 64.3487 17.587 66.5654 18.7609C68.807 19.9348 70.5878 21.525 71.9078 23.5313C73.2528 25.5163 73.9253 27.7361 73.9253 30.1907V33.2003C73.9253 33.371 73.8257 33.4564 73.6264 33.4564H65.0336C64.8344 33.4564 64.7347 33.371 64.7347 33.2003V30.1907C64.7347 28.7393 64.1868 27.4907 63.0909 26.4448C61.995 25.399 60.6252 24.876 58.9813 24.876C57.1631 24.876 55.7684 25.4096 54.797 26.4768C53.8257 27.5441 53.34 28.782 53.34 30.1907V50.6492C53.34 52.25 53.8879 53.5627 54.9838 54.5872C56.0797 55.5904 57.4122 56.092 58.9813 56.092C60.6252 56.092 61.995 55.537 63.0909 54.4271C64.1868 53.2959 64.7347 52.0366 64.7347 50.6492V47.6076C64.7347 47.4369 64.8344 47.3515 65.0336 47.3515H73.7011C73.9004 47.3515 74 47.4369 74 47.6076V50.6492C74 53.1038 73.3275 55.3449 71.9826 57.3726C70.6127 59.379 68.807 60.9905 66.5654 62.2071C64.3238 63.4024 61.7958 64 58.9813 64Z" fill="currentColor"/>
<path d="M25.9813 64C23.2665 64 20.7634 63.4015 18.472 62.2046C16.2055 61.0077 14.3873 59.4154 13.0174 57.4277C11.6725 55.4186 11 53.2171 11 50.8233V47.8097C11 47.5746 11.1245 47.457 11.3736 47.457H19.9664C20.1656 47.457 20.2653 47.5746 20.2653 47.8097V50.8233C20.2653 52.2553 20.8257 53.495 21.9465 54.5423C23.0672 55.5682 24.4122 56.0812 25.9813 56.0812C27.5753 56.0812 28.9328 55.5575 30.0535 54.5102C31.1743 53.4416 31.7347 52.2126 31.7347 50.8233C31.7347 49.2203 30.5143 47.8204 28.0735 46.6235C27.675 46.4097 27.1519 46.1532 26.5044 45.854C25.8817 45.5334 25.1345 45.1701 24.2628 44.764C23.391 44.3579 22.5442 43.9625 21.7223 43.5778C20.9004 43.1717 20.1034 42.7869 19.3313 42.4236C16.5417 41.013 14.462 39.2497 13.0922 37.1337C11.7472 34.9964 11.0747 32.6025 11.0747 29.9523C11.0747 27.5157 11.7721 25.3142 13.1669 23.3479C14.5616 21.4029 16.3798 19.864 18.6214 18.7312C20.8879 17.5771 23.3412 17 25.9813 17C28.6961 17 31.1868 17.5771 33.4533 18.7312C35.7198 19.9068 37.5255 21.467 38.8705 23.412C40.2403 25.357 40.9253 27.5371 40.9253 29.9523V35.3383C40.9253 35.5093 40.8257 35.5948 40.6264 35.5948H32.0336C31.8344 35.5948 31.7347 35.5093 31.7347 35.3383L31.66 29.9523C31.66 28.4134 31.0996 27.163 29.9788 26.2012C28.858 25.2394 27.5255 24.7585 25.9813 24.7585C24.4122 24.7585 23.0672 25.2715 21.9465 26.2974C20.8257 27.3233 20.2653 28.5416 20.2653 29.9523C20.2653 31.3843 20.6139 32.5812 21.3113 33.543C22.0336 34.5048 23.3412 35.4238 25.2341 36.3001C25.4334 36.3856 25.8941 36.5994 26.6164 36.9413C27.3387 37.2833 28.1357 37.668 29.0075 38.0955C29.9041 38.5016 30.7136 38.8756 31.4359 39.2176C32.1582 39.5382 32.594 39.7306 32.7435 39.7947C35.2839 41.013 37.2889 42.5091 38.7584 44.2831C40.2528 46.0571 41 48.2372 41 50.8233C41 53.324 40.3275 55.5682 38.9826 57.5559C37.6127 59.5437 35.7945 61.1146 33.528 62.2688C31.2615 63.4229 28.746 64 25.9813 64Z" fill="currentColor"/>
<path d="M97.6835 19C98.0994 19.14 98.1372 19.297 98.3482 19.6795C98.4157 19.8005 98.4832 19.9216 98.5528 20.0464C98.6062 20.1436 98.6062 20.1436 98.6607 20.2429C98.8106 20.5162 98.9627 20.7883 99.1145 21.0605C99.1924 21.2001 99.2701 21.3398 99.3478 21.4795C99.7047 22.1217 100.071 22.7585 100.439 23.3939C100.499 23.4977 100.56 23.6014 100.621 23.7083C100.742 23.9168 100.863 24.1253 100.984 24.3338C101.872 25.8651 102.755 27.399 103.632 28.9365C104.317 30.1364 105.008 31.3323 105.7 32.5279C106.527 33.9559 107.35 35.3857 108.168 36.819C108.792 37.913 109.422 39.0039 110.053 40.0942C110.422 40.7321 110.791 41.3704 111.16 42.0086C111.466 42.5387 111.772 43.0686 112.079 43.5984C112.783 44.816 113.483 46.0359 114.181 47.2578C114.866 48.4576 115.557 49.6536 116.249 50.8492C116.493 51.2708 116.737 51.6924 116.981 52.1141C117.042 52.2193 117.102 52.3244 117.165 52.4328C117.614 53.2103 118.059 53.9901 118.504 54.7704C119.044 55.7181 119.591 56.6605 120.145 57.5998C120.954 58.9717 121.74 60.3562 122.519 61.7451C122.63 61.9403 122.745 62.1334 122.863 62.3244C123 62.5663 123 62.5663 123 62.7793C122.145 62.8275 121.292 62.8606 120.436 62.8756C120.038 62.8831 119.642 62.8953 119.245 62.9192C116.693 63.0679 116.693 63.0679 115.966 62.4214C115.486 61.7917 115.191 61.0992 114.915 60.36C114.678 59.7784 114.351 59.2535 114.027 58.7183C113.904 58.5063 113.78 58.2941 113.658 58.0817C113.567 57.9255 113.567 57.9255 113.475 57.7662C113.124 57.1553 112.783 56.5392 112.44 55.9237C112.031 55.191 111.614 54.4639 111.192 53.7385C110.688 52.8697 110.194 51.9956 109.709 51.1155C109.171 50.1404 108.621 49.1734 108.062 48.2108C107.549 47.3263 107.045 46.4367 106.542 45.5459C106.052 44.6763 105.556 43.8101 105.054 42.9468C104.492 41.9785 103.946 41.002 103.406 40.0213C102.929 39.1585 102.439 38.3042 101.944 37.4519C101.47 36.6348 101.003 35.8138 100.538 34.9912C100.468 34.8667 100.398 34.7423 100.327 34.6179C100.292 34.5562 100.258 34.4945 100.222 34.431C100.187 34.3693 100.152 34.3075 100.116 34.2439C100.081 34.1821 100.046 34.1203 100.01 34.0566C99.6438 33.4087 99.2775 32.7608 98.9095 32.1139C98.8064 31.9323 98.7036 31.7506 98.6008 31.5689C98.5388 31.46 98.4768 31.3511 98.4129 31.2389C98.3312 31.095 98.3312 31.095 98.2479 30.9482C98.111 30.7065 98.111 30.7065 97.8945 30.5041C97.8517 30.5799 97.8088 30.6558 97.7647 30.7339C96.6584 32.6919 95.5459 34.6461 94.4289 36.5979C93.6465 37.9652 92.8668 39.3339 92.0918 40.7054C91.5202 41.7168 90.9449 42.7261 90.3678 43.7344C89.847 44.6449 89.3306 45.5579 88.8149 46.4713C88.2639 47.4469 87.7054 48.418 87.1432 49.3871C86.7296 50.1016 86.3237 50.8202 85.9219 51.5416C85.461 52.3692 84.9929 53.1921 84.5177 54.0115C83.8019 55.2458 83.0982 56.4869 82.3969 57.7296C82.1394 58.1859 81.8813 58.6419 81.623 59.0978C81.5483 59.2296 81.4737 59.3614 81.399 59.4932C81.2599 59.7386 81.1208 59.984 80.9817 60.2294C80.4615 61.148 79.9484 62.0701 79.4346 62.9924C77.3112 62.9924 75.1878 62.9924 73 62.9924C73.1606 62.5058 73.3039 62.1575 73.5526 61.7246C73.621 61.6046 73.6894 61.4847 73.7599 61.3611C73.8341 61.2325 73.9082 61.1038 73.9823 60.9752C74.0589 60.8414 74.1353 60.7075 74.2117 60.5736C74.3282 60.3696 74.4447 60.1656 74.5614 59.9617C74.9152 59.3431 75.2637 58.7216 75.6108 58.0992C76.1906 57.0613 76.775 56.0262 77.3612 54.9921C77.6564 54.4711 77.9513 53.9499 78.2461 53.4287C78.4264 53.1102 78.6066 52.7917 78.7869 52.4732C78.8599 52.3442 78.9329 52.2152 79.0059 52.0862C79.1494 51.8325 79.2929 51.5789 79.4365 51.3253C79.4887 51.2329 79.4887 51.2329 79.542 51.1388C79.6121 51.0148 79.6823 50.8908 79.7524 50.7669C79.9275 50.4575 80.1026 50.1481 80.2777 49.8386C80.597 49.2743 80.9163 48.71 81.236 48.1459C81.9216 46.9359 82.6065 45.7255 83.2848 44.5113C83.9989 43.2331 84.7204 41.9591 85.4422 40.6852C85.6554 40.3089 85.8684 39.9325 86.0814 39.5561C86.1162 39.4947 86.1509 39.4333 86.1867 39.37C86.2918 39.1842 86.397 38.9984 86.5021 38.8125C86.8914 38.1244 87.2808 37.4363 87.6706 36.7484C87.8503 36.4312 88.03 36.114 88.2097 35.7967C88.2449 35.7345 88.2802 35.6723 88.3165 35.6081C88.7914 34.7695 89.2632 33.929 89.7326 33.0871C90.1906 32.2657 90.6576 31.4501 91.1303 30.6372C91.7273 29.61 92.3027 28.5719 92.8726 27.5292C93.3661 26.6284 93.8755 25.738 94.392 24.8505C94.8981 23.979 95.3885 23.0993 95.8755 22.2168C96.4701 21.1398 97.0754 20.0692 97.6835 19ZM97.6835 37.3213C98.088 37.4574 98.1167 37.5849 98.3169 37.9571C98.377 38.0675 98.4372 38.178 98.4992 38.2918C98.5629 38.4109 98.6266 38.53 98.6922 38.6528C98.8264 38.8993 98.9608 39.1458 99.0952 39.3922C99.1608 39.5127 99.2264 39.6333 99.2939 39.7575C99.5216 40.1725 99.7572 40.582 99.9976 40.9895C100.434 41.7319 100.863 42.4784 101.29 43.2264C101.357 43.3444 101.424 43.4623 101.494 43.5838C101.632 43.8257 101.77 44.0676 101.908 44.3095C102.24 44.8918 102.572 45.4738 102.905 46.0558C103.037 46.2866 103.169 46.5174 103.301 46.7482C103.399 46.9196 103.399 46.9196 103.498 47.0944C105.278 50.2101 107.059 53.3258 108.839 56.4415C108.904 56.5558 108.969 56.6701 109.037 56.788C109.168 57.0177 109.299 57.2475 109.43 57.4772C109.839 58.1924 110.248 58.9076 110.657 59.6227C110.856 59.9719 111.056 60.3212 111.255 60.6706C111.467 61.0428 111.68 61.4146 111.894 61.7857C111.972 61.9216 112.05 62.0576 112.128 62.1935C112.192 62.3044 112.257 62.4154 112.323 62.5297C112.451 62.7793 112.451 62.7793 112.451 62.9924C110.328 62.9924 108.205 62.9924 106.017 62.9924C105.53 62.0784 105.042 61.1645 104.54 60.2229C104.073 59.3942 104.073 59.3942 103.603 58.5673C103.228 57.9068 102.862 57.2408 102.496 56.5746C101.924 55.5324 101.35 54.4917 100.772 53.4527C100.447 52.8661 100.123 52.2786 99.8007 51.6897C99.7305 51.5615 99.6603 51.4333 99.5901 51.305C99.4579 51.0635 99.3261 50.8217 99.1945 50.5798C98.7493 49.7662 98.2773 48.974 97.789 48.1862C97.7509 48.2579 97.7128 48.3295 97.6736 48.4033C96.9587 49.7464 96.2422 51.0884 95.5181 52.4264C95.1307 53.1425 94.7453 53.8597 94.3608 54.5774C93.8712 55.491 93.3797 56.4035 92.8865 57.3151C92.6108 57.8251 92.3359 58.3354 92.0623 58.8465C92.0036 58.9562 91.9449 59.0659 91.8843 59.1789C91.7741 59.385 91.6639 59.5911 91.5539 59.7972C91.0384 60.7606 90.5099 61.7154 89.9831 62.6728C87.7553 62.6728 85.5274 62.6728 83.2321 62.6728C83.3223 62.3085 83.4094 62.089 83.5885 61.7703C83.6677 61.6289 83.6677 61.6289 83.7485 61.4845C83.8065 61.3824 83.8645 61.2802 83.9243 61.1749C83.985 61.0672 84.0458 60.9594 84.1083 60.8484C84.6467 59.8975 85.1996 58.9554 85.7544 58.0143C86.5087 56.734 87.2441 55.443 87.9789 54.1513C88.7834 52.7382 89.5903 51.327 90.4142 49.9254C90.8565 49.1715 91.291 48.4132 91.7236 47.6536C92.2655 46.7023 92.8137 45.7551 93.3684 44.8114C93.804 44.069 94.2317 43.3222 94.6574 42.574C95.2921 41.4588 95.9376 40.3506 96.5901 39.246C96.9652 38.6101 97.3328 37.9713 97.6835 37.3213Z" fill="currentColor"/>
</svg>

