<svg width="138" height="63" viewBox="0 0 138 63" fill="none" xmlns="http://www.w3.org/2000/svg">
<path d="M1 0.999996V12.262H3.81549V4.03206H12.262V0.999996H1Z" fill="#D10000" stroke="#D10000"/>
<path d="M1 62.1364V50.8744H3.81549V59.1043H12.262V62.1364H1Z" fill="#D10000" stroke="#D10000"/>
<path d="M136.948 0.999996V12.262H134.133V4.03206H125.686V0.999996H136.948Z" fill="#D10000" stroke="#D10000"/>
<path d="M136.948 62.1364V50.8744H134.133V59.1043H125.686V62.1364H136.948Z" fill="#D10000" stroke="#D10000"/>
<path d="M108.524 50.8745H102.116C101.783 50.8745 101.616 50.7559 101.616 50.5188L101.553 15.0817C101.553 14.8108 101.72 14.6753 102.053 14.6753H107.837L118.653 35.1755L118.34 15.0817C118.34 14.8108 118.528 14.6753 118.903 14.6753H125.248C125.499 14.6753 125.624 14.8108 125.624 15.0817L125.686 50.5696C125.686 50.7729 125.582 50.8745 125.373 50.8745H119.747L108.649 31.7207L109.118 50.468C109.118 50.739 108.92 50.8745 108.524 50.8745Z" fill="#D10000"/>
<path d="M47.6417 51.6789C45.4178 51.6789 43.3842 51.1981 41.5409 50.2366C39.7177 49.2751 38.2651 47.9874 37.1832 46.3734C36.1213 44.7423 35.5903 42.9308 35.5903 40.9391L35.6504 24.4818C35.6504 22.5245 36.1714 20.756 37.2132 19.1763C38.2551 17.5795 39.6876 16.3004 41.5108 15.3389C43.3541 14.3602 45.3977 13.8708 47.6417 13.8708C49.9258 13.8708 51.9594 14.343 53.7425 15.2874C55.5457 16.2317 56.9783 17.5109 58.0401 19.1248C59.1221 20.7216 59.663 22.5073 59.663 24.4818V26.9028C59.663 27.0401 59.5829 27.1088 59.4226 27.1088H52.5103C52.35 27.1088 52.2699 27.0401 52.2699 26.9028V24.4818C52.2699 23.3143 51.8291 22.3098 50.9476 21.4685C50.066 20.6272 48.964 20.2065 47.6417 20.2065C46.1791 20.2065 45.0571 20.6358 44.2757 21.4943C43.4943 22.3528 43.1037 23.3486 43.1037 24.4818V40.9391C43.1037 42.2269 43.5444 43.2828 44.426 44.107C45.3076 44.914 46.3795 45.3174 47.6417 45.3174C48.964 45.3174 50.066 44.871 50.9476 43.9782C51.8291 43.0682 52.2699 42.0552 52.2699 40.9391V38.4924C52.2699 38.3551 52.35 38.2864 52.5103 38.2864H59.4827C59.643 38.2864 59.7231 38.3551 59.7231 38.4924V40.9391C59.7231 42.9137 59.1822 44.7165 58.1002 46.3476C56.9983 47.9616 55.5457 49.2579 53.7425 50.2366C51.9393 51.1981 49.9057 51.6789 47.6417 51.6789Z" fill="#D10000"/>
<path d="M21.0956 51.6789C18.9118 51.6789 16.8982 51.1975 15.0549 50.2346C13.2317 49.2718 11.7691 47.9909 10.6672 46.3919C9.58524 44.7758 9.04428 43.0049 9.04428 41.0792V38.655C9.04428 38.4658 9.14446 38.3713 9.34481 38.3713H16.2571C16.4174 38.3713 16.4975 38.4658 16.4975 38.655V41.0792C16.4975 42.2312 16.9483 43.2284 17.8499 44.0709C18.7515 44.8961 19.8334 45.3088 21.0956 45.3088C22.3779 45.3088 23.4699 44.8875 24.3715 44.0451C25.2731 43.1854 25.7239 42.1968 25.7239 41.0792C25.7239 39.7897 24.7421 38.6636 22.7786 37.7007C22.4581 37.5288 22.0373 37.3225 21.5164 37.0818C21.0155 36.8239 20.4144 36.5316 19.7132 36.2049C19.012 35.8783 18.3307 35.5602 17.6696 35.2507C17.0084 34.924 16.3673 34.6145 15.7462 34.3223C13.5022 33.1875 11.8292 31.7691 10.7273 30.0669C9.64535 28.3476 9.10439 26.4219 9.10439 24.29C9.10439 22.3299 9.66538 20.559 10.7874 18.9773C11.9094 17.4127 13.372 16.1747 15.1752 15.2635C16.9984 14.3351 18.9719 13.8708 21.0956 13.8708C23.2795 13.8708 25.2831 14.3351 27.1063 15.2635C28.9295 16.2091 30.3821 17.4642 31.464 19.0288C32.566 20.5934 33.117 22.3471 33.117 24.29V28.6227C33.117 28.7602 33.0368 28.829 32.8765 28.829H25.9643C25.804 28.829 25.7239 28.7602 25.7239 28.6227L25.6637 24.29C25.6637 23.0521 25.2129 22.0463 24.3114 21.2726C23.4098 20.4989 22.3379 20.112 21.0956 20.112C19.8334 20.112 18.7515 20.5247 17.8499 21.3499C16.9483 22.1752 16.4975 23.1552 16.4975 24.29C16.4975 25.4419 16.778 26.4048 17.339 27.1785C17.92 27.9521 18.9719 28.6915 20.4946 29.3964C20.6549 29.4652 21.0255 29.6371 21.6066 29.9122C22.1876 30.1873 22.8287 30.4968 23.53 30.8406C24.2512 31.1673 24.9024 31.4682 25.4834 31.7433C26.0645 32.0012 26.4151 32.1559 26.5353 32.2075C28.5789 33.1875 30.1918 34.391 31.3739 35.8181C32.576 37.2451 33.1771 38.9988 33.1771 41.0792C33.1771 43.0908 32.6361 44.8961 31.5542 46.4951C30.4522 48.0941 28.9896 49.3578 27.1664 50.2862C25.3432 51.2147 23.3196 51.6789 21.0956 51.6789Z" fill="#D10000"/>
<path d="M78.7748 15.4797C79.1093 15.5923 79.1397 15.7187 79.3094 16.0263C79.3638 16.1237 79.4181 16.2211 79.4741 16.3215C79.517 16.3997 79.517 16.3997 79.5608 16.4796C79.6814 16.6994 79.8037 16.9183 79.9259 17.1373C79.9886 17.2496 80.0511 17.3619 80.1135 17.4743C80.4007 17.9909 80.695 18.5032 80.9916 19.0143C81.04 19.0978 81.0883 19.1813 81.1381 19.2673C81.2352 19.435 81.3324 19.6027 81.4296 19.7703C82.1438 21.0022 82.8543 22.2361 83.56 23.473C84.1109 24.4381 84.6671 25.4002 85.2238 26.362C85.8887 27.5107 86.5509 28.6609 87.2087 29.8138C87.7111 30.6939 88.2178 31.5714 88.7254 32.4485C89.0223 32.9616 89.3187 33.4751 89.6152 33.9885C89.8615 34.4149 90.1079 34.8412 90.3545 35.2673C90.9212 36.2468 91.4847 37.2281 92.0455 38.2111C92.5964 39.1762 93.1526 40.1383 93.7093 41.1001C93.9056 41.4392 94.1018 41.7784 94.298 42.1176C94.3469 42.2022 94.3958 42.2868 94.4462 42.3739C94.8075 42.9994 95.1656 43.6267 95.5231 44.2544C95.9573 45.0167 96.398 45.7748 96.8436 46.5305C97.4943 47.634 98.1262 48.7478 98.7535 49.865C98.8427 50.022 98.935 50.1774 99.0299 50.331C99.14 50.5256 99.14 50.5256 99.14 50.697C98.4525 50.7357 97.7658 50.7624 97.0773 50.7745C96.7574 50.7804 96.4386 50.7903 96.1192 50.8095C94.0667 50.9291 94.0667 50.9291 93.4818 50.409C93.0954 49.9025 92.8586 49.3455 92.636 48.7508C92.4455 48.283 92.1829 47.8607 91.922 47.4302C91.8226 47.2597 91.7235 47.089 91.6247 46.9181C91.552 46.7924 91.552 46.7924 91.4778 46.6643C91.1957 46.1729 90.921 45.6773 90.6454 45.1822C90.3165 44.5927 89.9806 44.0078 89.6416 43.4243C89.2356 42.7254 88.8385 42.0222 88.4483 41.3143C88.0158 40.5299 87.5735 39.752 87.1237 38.9777C86.7109 38.2661 86.3053 37.5505 85.9011 36.834C85.5064 36.1344 85.1074 35.4377 84.704 34.7432C84.2519 33.9643 83.8127 33.1787 83.3778 32.3899C82.9942 31.6958 82.6001 31.0085 82.202 30.3229C81.8206 29.6656 81.4448 29.0052 81.0712 28.3435C81.0146 28.2434 80.9581 28.1433 80.9015 28.0432C80.8734 27.9936 80.8454 27.944 80.8165 27.8928C80.7884 27.8432 80.7604 27.7935 80.7314 27.7423C80.7033 27.6926 80.6752 27.6429 80.6463 27.5917C80.3517 27.0705 80.057 26.5493 79.761 26.0289C79.678 25.8828 79.5953 25.7367 79.5127 25.5905C79.4628 25.5029 79.4129 25.4153 79.3615 25.325C79.2958 25.2093 79.2958 25.2093 79.2288 25.0912C79.1186 24.8968 79.1186 24.8968 78.9445 24.7339C78.91 24.7949 78.8756 24.8559 78.8401 24.9188C77.9502 26.4939 77.0552 28.0659 76.1566 29.636C75.5273 30.7358 74.9001 31.8368 74.2766 32.9401C73.8168 33.7538 73.354 34.5657 72.8898 35.3768C72.4709 36.1092 72.0555 36.8436 71.6406 37.5784C71.1974 38.3632 70.7481 39.1443 70.2959 39.9239C69.9632 40.4987 69.6366 41.0767 69.3135 41.657C68.9427 42.3228 68.5661 42.9848 68.1838 43.6439C67.608 44.6368 67.042 45.6352 66.4778 46.6348C66.2707 47.0019 66.0631 47.3687 65.8553 47.7354C65.7952 47.8415 65.7351 47.9475 65.6751 48.0535C65.5632 48.2509 65.4513 48.4484 65.3394 48.6458C64.921 49.3847 64.5081 50.1264 64.0949 50.8684C62.3867 50.8684 60.6786 50.8684 58.9187 50.8684C59.0479 50.477 59.1632 50.1968 59.3632 49.8485C59.4182 49.752 59.4733 49.6555 59.53 49.5561C59.5896 49.4526 59.6493 49.3492 59.7089 49.2457C59.7705 49.138 59.832 49.0303 59.8935 48.9226C59.9871 48.7585 60.0808 48.5944 60.1747 48.4304C60.4594 47.9328 60.7396 47.4328 61.0189 46.9321C61.4853 46.0973 61.9554 45.2646 62.427 44.4327C62.6645 44.0136 62.9016 43.5944 63.1388 43.1751C63.2838 42.9189 63.4288 42.6627 63.5738 42.4065C63.6325 42.3027 63.6912 42.1989 63.75 42.0951C63.8654 41.8911 63.9809 41.6871 64.0964 41.483C64.1384 41.4088 64.1384 41.4088 64.1813 41.333C64.2377 41.2333 64.2941 41.1336 64.3505 41.0339C64.4914 40.785 64.6322 40.536 64.7731 40.2871C65.0299 39.8332 65.2868 39.3793 65.5439 38.9255C66.0955 37.9521 66.6464 36.9784 67.1921 36.0017C67.7665 34.9735 68.3469 33.9486 68.9275 32.9239C69.099 32.6212 69.2704 32.3184 69.4417 32.0156C69.4697 31.9662 69.4976 31.9168 69.5264 31.8659C69.611 31.7164 69.6956 31.567 69.7802 31.4175C70.0933 30.8639 70.4065 30.3104 70.7201 29.757C70.8647 29.5018 71.0092 29.2467 71.1537 28.9915C71.1821 28.9414 71.2105 28.8913 71.2397 28.8398C71.6217 28.1651 72.0012 27.489 72.3788 26.8118C72.7473 26.151 73.123 25.4949 73.5032 24.841C73.9834 24.0147 74.4463 23.1797 74.9047 22.3408C75.3018 21.6162 75.7115 20.9 76.127 20.186C76.5341 19.485 76.9286 18.7773 77.3204 18.0674C77.7987 17.201 78.2856 16.3398 78.7748 15.4797ZM78.7748 30.2179C79.1001 30.3274 79.1232 30.4299 79.2843 30.7293C79.3327 30.8182 79.381 30.907 79.4309 30.9986C79.4822 31.0944 79.5334 31.1902 79.5862 31.2889C79.6942 31.4873 79.8022 31.6855 79.9104 31.8837C79.9631 31.9807 80.0159 32.0777 80.0702 32.1776C80.2534 32.5114 80.4429 32.8409 80.6363 33.1687C80.9873 33.7659 81.3324 34.3664 81.6758 34.9681C81.7299 35.063 81.7841 35.1579 81.8398 35.2556C81.9508 35.4502 82.0618 35.6447 82.1728 35.8393C82.44 36.3078 82.7076 36.776 82.9751 37.2442C83.0812 37.4298 83.1873 37.6155 83.2933 37.8011C83.3721 37.939 83.3721 37.939 83.4524 38.0796C84.8844 40.5859 86.3163 43.0923 87.7482 45.5986C87.8008 45.6906 87.8533 45.7826 87.9075 45.8774C88.0131 46.0622 88.1186 46.247 88.2242 46.4318C88.5529 47.0072 88.8817 47.5824 89.2106 48.1577C89.3712 48.4386 89.5316 48.7196 89.6919 49.0007C89.8628 49.3 90.0341 49.5991 90.2064 49.8977C90.2691 50.007 90.3319 50.1164 90.3946 50.2257C90.4462 50.315 90.4977 50.4042 90.5508 50.4962C90.6545 50.697 90.6545 50.697 90.6545 50.8684C88.9464 50.8684 87.2382 50.8684 85.4783 50.8684C85.0863 50.1332 84.6943 49.398 84.2904 48.6405C83.9149 47.9739 83.9149 47.9739 83.537 47.3087C83.2347 46.7774 82.9404 46.2417 82.6463 45.7057C82.1862 44.8674 81.7242 44.0302 81.2596 43.1944C80.9975 42.7225 80.7368 42.2499 80.4779 41.7762C80.4214 41.673 80.3649 41.5699 80.3085 41.4667C80.2021 41.2724 80.0961 41.078 79.9903 40.8833C79.6321 40.2289 79.2525 39.5916 78.8597 38.9579C78.829 39.0155 78.7983 39.0731 78.7668 39.1325C78.1917 40.2129 77.6154 41.2925 77.0329 42.3688C76.7212 42.9449 76.4112 43.5218 76.1019 44.0991C75.708 44.834 75.3126 45.5681 74.9159 46.3014C74.6941 46.7116 74.473 47.1222 74.2529 47.5333C74.2057 47.6215 74.1584 47.7098 74.1098 47.8007C74.0211 47.9665 73.9324 48.1322 73.8439 48.2981C73.4293 49.073 73.0041 49.8411 72.5804 50.6113C70.7882 50.6113 68.9961 50.6113 67.1496 50.6113C67.2222 50.3182 67.2923 50.1416 67.4364 49.8853C67.5001 49.7715 67.5001 49.7715 67.5651 49.6554C67.6118 49.5732 67.6584 49.491 67.7065 49.4063C67.7554 49.3197 67.8042 49.233 67.8545 49.1437C68.2876 48.3787 68.7324 47.6209 69.1787 46.8638C69.7854 45.8339 70.377 44.7955 70.9681 43.7564C71.6152 42.6196 72.2644 41.4845 72.9271 40.3569C73.283 39.7505 73.6325 39.1405 73.9805 38.5295C74.4163 37.7642 74.8573 37.0023 75.3036 36.2431C75.654 35.6459 75.998 35.0451 76.3405 34.4433C76.851 33.5462 77.3703 32.6547 77.8952 31.7662C78.1969 31.2546 78.4926 30.7408 78.7748 30.2179Z" fill="#D10000"/>
</svg>
