<svg width="193" height="446" viewBox="0 0 193 446" fill="none" xmlns="http://www.w3.org/2000/svg">
<path d="M96.5316 445.842C78.8641 445.842 62.7087 440.18 48.0654 428.856C33.5812 417.533 22.0417 402.367 13.4467 383.36C5.01088 364.15 0.792969 342.817 0.792969 319.361L1.27047 125.544C1.27047 102.492 5.40879 81.6647 13.6854 63.0615C21.9621 44.2561 33.3425 29.1916 47.8266 17.8679C62.4699 6.34204 78.7049 0.579102 96.5316 0.579102C114.677 0.579102 130.832 6.13983 144.998 17.2613C159.323 28.3828 170.703 43.4473 179.139 62.4549C187.734 81.2602 192.031 102.29 192.031 125.544V154.055C192.031 155.673 191.395 156.482 190.121 156.482H135.209C133.936 156.482 133.299 155.673 133.299 154.055V125.544C133.299 111.794 129.797 99.9645 122.794 90.0563C115.791 80.1481 107.037 75.194 96.5316 75.194C84.9124 75.194 75.9991 80.2492 69.7916 90.3596C63.5841 100.47 60.4804 112.198 60.4804 125.544V319.361C60.4804 334.526 63.982 346.962 70.9854 356.668C77.9887 366.172 86.5041 370.924 96.5316 370.924C107.037 370.924 115.791 365.666 122.794 355.151C129.797 344.434 133.299 332.504 133.299 319.361V290.546C133.299 288.928 133.936 288.119 135.209 288.119H190.599C191.872 288.119 192.509 288.928 192.509 290.546V319.361C192.509 342.615 188.211 363.846 179.616 383.056C170.862 402.064 159.323 417.331 144.998 428.856C130.673 440.18 114.517 445.842 96.5316 445.842Z" fill="white"/>
</svg>
