<svg width="193" height="446" viewBox="0 0 193 446" fill="none" xmlns="http://www.w3.org/2000/svg">
<path d="M96.6442 445.842C79.2951 445.842 63.2989 440.172 48.6556 428.833C34.1714 417.494 22.5523 402.409 13.7981 383.578C5.20313 364.545 0.90564 343.689 0.90564 321.01V292.46C0.90564 290.233 1.70147 289.119 3.29314 289.119H58.2055C59.4789 289.119 60.1155 290.233 60.1155 292.46V321.01C60.1155 334.577 63.6968 346.321 70.8593 356.243C78.0218 365.962 86.6167 370.822 96.6442 370.822C106.831 370.822 115.505 365.861 122.668 355.939C129.83 345.815 133.412 334.172 133.412 321.01C133.412 305.824 125.613 292.561 110.014 281.222C107.468 279.197 104.125 276.768 99.9867 273.933C96.0076 270.896 91.2326 267.453 85.6617 263.606C80.0909 259.759 74.6793 256.013 69.4268 252.368C64.1743 248.521 59.081 244.876 54.1468 241.434C36.3202 228.07 23.0298 211.365 14.2756 191.319C5.68063 171.071 1.38314 148.393 1.38314 123.285C1.38314 100.201 5.8398 79.3455 14.7531 60.7169C23.6664 42.2909 35.2856 27.712 49.6106 16.9803C64.0947 6.04618 79.7726 0.579102 96.6442 0.579102C113.993 0.579102 129.91 6.04618 144.394 16.9803C158.878 28.117 170.418 42.8983 179.013 61.3244C187.767 79.7504 192.144 100.404 192.144 123.285V174.311C192.144 175.93 191.507 176.74 190.234 176.74H135.322C134.048 176.74 133.412 175.93 133.412 174.311L132.934 123.285C132.934 108.706 129.353 96.8604 122.19 87.7486C115.028 78.6368 106.513 74.0809 96.6442 74.0809C86.6167 74.0809 78.0218 78.9405 70.8593 88.6597C63.6968 98.379 60.1155 109.921 60.1155 123.285C60.1155 136.851 62.3439 148.19 66.8005 157.302C71.4164 166.414 79.7726 175.121 91.8692 183.422C93.1426 184.232 96.0871 186.257 100.703 189.497C105.319 192.737 110.412 196.381 115.983 200.431C121.713 204.278 126.886 207.822 131.502 211.061C136.117 214.099 138.903 215.921 139.858 216.529C156.093 228.07 168.906 242.244 178.297 259.05C187.847 275.856 192.622 296.51 192.622 321.01C192.622 344.701 188.324 365.962 179.729 384.793C170.975 403.624 159.356 418.507 144.872 429.441C130.388 440.375 114.312 445.842 96.6442 445.842Z" fill="white"/>
</svg>
