<svg width="295" height="49" viewBox="0 0 295 49" fill="none" xmlns="http://www.w3.org/2000/svg">
<g clip-path="url(#clip0_114_28)" filter="url(#filter0_d_114_28)">
<path d="M103.834 10.0865C106.461 10.0865 109.087 10.0865 111.793 10.0865C112.341 10.7973 112.341 10.7973 112.899 11.5224C113.068 11.7411 113.236 11.9597 113.41 12.1851C114.124 13.1117 114.832 14.0429 115.541 14.9734C115.84 15.3655 116.139 15.7575 116.438 16.1494C116.584 16.3415 116.731 16.5337 116.877 16.7258C117.251 17.2161 117.625 17.7063 118 18.1963C118.721 19.1408 119.44 20.0867 120.152 21.0384C120.737 21.8192 121.331 22.5931 121.926 23.3667C122.087 23.5779 122.246 23.7904 122.406 24.003C122.407 23.8856 122.408 23.7683 122.409 23.6474C122.42 22.5222 122.432 21.3971 122.443 20.2719C122.449 19.6939 122.455 19.116 122.461 18.538C122.466 17.9765 122.472 17.4151 122.478 16.8536C122.48 16.6432 122.482 16.4327 122.484 16.2223C122.503 14.1757 122.568 12.1332 122.627 10.0865C125.947 10.0865 129.266 10.0865 132.687 10.0865C132.687 20.6928 132.687 31.2991 132.687 42.2268C130.206 42.2268 127.725 42.2268 125.17 42.2268C123.423 39.9839 123.423 39.9839 122.848 39.1895C122.276 38.4071 121.689 37.6387 121.091 36.8759C120.68 36.3514 120.276 35.823 119.877 35.2893C119.37 34.6099 118.858 33.934 118.343 33.2599C118.269 33.1622 118.194 33.0646 118.118 32.964C117.739 32.4677 117.359 31.9716 116.98 31.4759C116.905 31.378 116.83 31.2802 116.753 31.1793C116.615 30.9986 116.476 30.818 116.338 30.6375C115.583 29.6506 114.853 28.6481 114.115 27.6477C114.042 32.4588 113.969 37.2699 113.894 42.2268C110.574 42.2268 107.254 42.2268 103.834 42.2268C103.834 31.6205 103.834 21.0142 103.834 10.0865Z" fill="white"/>
<path d="M36.5109 10.0865C57.2872 10.0865 57.2872 10.0865 60.5602 13.2183C62.8828 15.5414 63.6218 18.4057 63.6227 21.6061C63.6142 22.5954 63.5425 23.4911 63.2633 24.4448C63.2325 24.5565 63.2017 24.6683 63.17 24.7834C62.7385 26.2088 62.057 27.434 61.0523 28.5313C60.9751 28.6175 60.8979 28.7036 60.8183 28.7923C60.164 29.4856 59.4141 30.0009 58.6203 30.5194C59.0763 31.6598 59.5984 32.7658 60.1265 33.8742C60.1707 33.9672 60.2149 34.0602 60.2604 34.156C60.815 35.3234 61.3769 36.4863 61.9606 37.6395C62.3256 38.3613 62.6792 39.0881 63.0284 39.8177C63.0771 39.9194 63.1258 40.0211 63.176 40.1259C63.5083 40.8228 63.8278 41.5239 64.1476 42.2268C60.4266 42.2268 56.7056 42.2268 52.8719 42.2268C51.3926 39.1478 51.3926 39.1478 50.7304 37.7664C50.4036 37.0857 50.0736 36.4065 49.742 35.7281C49.6191 35.4762 49.4961 35.2243 49.3732 34.9724C49.2923 34.8069 49.2112 34.6414 49.13 34.4761C49.0164 34.2447 48.9033 34.0131 48.7903 33.7815C48.7558 33.7117 48.7213 33.6418 48.6858 33.5699C48.45 33.0848 48.45 33.0848 48.45 32.8388C47.7933 32.8388 47.1367 32.8388 46.4601 32.8388C46.4601 35.9368 46.4601 39.0349 46.4601 42.2268C43.1769 42.2268 39.8937 42.2268 36.5109 42.2268C36.5109 31.6205 36.5109 21.0142 36.5109 10.0865ZM46.4601 18.4806C46.4601 20.4488 46.4601 22.4169 46.4601 24.4448C47.0552 24.447 47.6503 24.4493 48.2634 24.4517C48.4486 24.4527 48.6337 24.4537 48.8245 24.4547C50.9218 24.5171 50.9218 24.5171 52.7449 23.6047C53.4502 22.8463 53.6022 22.0597 53.5727 21.0412C53.4933 20.2975 53.2275 19.7872 52.6922 19.2675C51.4404 18.2688 49.6065 18.4646 48.0976 18.4737C47.5573 18.476 47.0169 18.4782 46.4601 18.4806Z" fill="white"/>
<path d="M148.675 9.38939C148.79 9.38974 148.79 9.38974 148.907 9.39011C153.579 9.41324 157.749 11.071 161.318 14.0627C161.269 14.6532 160.941 15.0603 160.614 15.533C160.554 15.6212 160.494 15.7094 160.432 15.8002C160.249 16.0684 160.065 16.3358 159.881 16.603C159.782 16.7476 159.684 16.8923 159.585 17.037C158.891 18.052 158.186 19.0595 157.483 20.068C157.374 20.2247 157.374 20.2247 157.262 20.3845C157.197 20.478 157.132 20.5714 157.065 20.6677C156.933 20.8578 156.804 21.0495 156.675 21.2418C156.187 21.0737 155.79 20.809 155.37 20.517C153.455 19.22 151.015 17.6836 148.605 17.9284C148.089 18.0332 147.644 18.1708 147.272 18.5566C147.052 18.9326 146.951 19.1537 146.987 19.5842C147.145 20.0785 147.521 20.3082 147.942 20.5791C149.391 21.313 150.937 21.7501 152.491 22.2054C155.75 23.1655 159.133 24.5396 160.876 27.6478C162.179 30.1102 162.188 33.1603 161.418 35.7955C160.977 37.1076 160.353 38.2063 159.439 39.2448C159.33 39.3691 159.33 39.3691 159.22 39.4959C156.901 41.9784 153.366 42.8717 150.082 42.9917C144.437 43.1206 139.197 41.0114 135.119 37.1463C135.182 36.6951 135.438 36.3947 135.713 36.0487C135.762 35.9861 135.811 35.9235 135.861 35.8589C136.313 35.2864 136.784 34.7305 137.258 34.1767C137.524 33.8658 137.783 33.55 138.041 33.2323C138.486 32.6863 138.943 32.1511 139.403 31.6179C139.747 31.2182 140.088 30.8152 140.425 30.409C140.919 30.6612 141.327 30.9485 141.752 31.3064C143.707 32.932 146.031 34.3981 148.633 34.4127C148.733 34.415 148.833 34.4173 148.936 34.4196C149.859 34.4249 150.685 34.2741 151.369 33.612C151.547 33.2567 151.531 32.8928 151.48 32.5075C150.998 31.5802 150.112 31.0945 149.145 30.7728C148.474 30.5679 147.797 30.3855 147.12 30.2019C143.664 29.2614 139.777 28.1478 137.826 24.8659C136.547 22.4561 136.278 19.4743 136.998 16.8377C137.8 14.2667 139.486 12.1372 141.862 10.8597C142.661 10.4582 143.489 10.1557 144.342 9.8933C144.412 9.87134 144.482 9.84938 144.554 9.82675C145.894 9.43785 147.289 9.38346 148.675 9.38939Z" fill="white"/>
<path d="M182.986 10.5284C183.102 10.5578 183.219 10.5873 183.339 10.6177C185.774 11.333 187.401 13.1008 188.686 15.2056C188.845 15.4985 188.845 15.4985 188.845 15.7194C189.131 15.4589 189.311 15.1814 189.508 14.8496C191.068 12.3681 193.055 11.0167 195.888 10.3567C198.956 9.75898 202.439 10.1467 205.095 11.8537C207.757 13.7305 209.202 16.4364 209.848 19.5851C209.947 20.284 209.977 20.9752 209.982 21.6803C209.983 21.8394 209.983 21.8394 209.985 22.0017C209.988 22.3531 209.991 22.7045 209.994 23.056C209.996 23.3068 209.999 23.5577 210.001 23.8086C210.007 24.4818 210.013 25.1551 210.018 25.8284C210.021 26.246 210.025 26.6636 210.028 27.0811C210.071 32.1298 210.082 37.178 210.07 42.2269C208.391 42.2269 206.713 42.2269 204.984 42.2269C204.9 39.7878 204.856 37.3535 204.848 34.9133C204.847 34.3298 204.844 33.7463 204.841 33.1629C204.833 31.5071 204.827 29.8513 204.821 28.1956C204.818 27.2738 204.814 26.3519 204.809 25.4301C204.806 24.8519 204.804 24.2737 204.803 23.6955C204.802 23.3354 204.8 22.9754 204.798 22.6154C204.797 22.4504 204.797 22.2855 204.797 22.1205C204.811 19.9925 204.811 19.9924 204.148 18.0043C204.11 17.931 204.071 17.8578 204.031 17.7823C203.278 16.42 202.197 15.4889 200.708 15.0153C198.526 14.4602 196.167 14.6163 194.205 15.7625C192.619 16.7876 191.703 18.4894 191.23 20.2805C191.078 20.9901 191.035 21.683 191.023 22.4055C191.021 22.5101 191.018 22.6148 191.016 22.7226C191.009 23.074 191.003 23.4255 190.997 23.7769C190.995 23.9006 190.993 24.0243 190.99 24.1517C190.929 27.517 190.909 30.8827 190.888 34.2484C190.882 35.1217 190.876 35.995 190.87 36.8682C190.858 38.6544 190.846 40.4406 190.834 42.2269C189.229 42.2269 187.624 42.2269 185.97 42.2269C185.968 41.8826 185.965 41.5383 185.962 41.1836C185.932 37.4244 185.899 33.6653 185.863 29.9062C185.86 29.5477 185.857 29.1892 185.853 28.8307C185.843 27.7016 185.831 26.5725 185.817 25.4435C185.813 25.1258 185.81 24.8081 185.807 24.4904C185.803 24.0568 185.797 23.6233 185.791 23.1897C185.79 23.0689 185.789 22.9481 185.788 22.8236C185.766 21.4308 185.593 20.1794 184.975 18.9224C184.928 18.823 184.928 18.823 184.879 18.7216C184.08 17.0618 183.02 15.7457 181.26 15.061C179.421 14.4978 177.354 14.592 175.634 15.4571C173.792 16.5138 172.735 18.2442 172.124 20.2339C171.567 22.3217 171.582 24.5279 171.541 26.6744C171.539 26.7871 171.536 26.8998 171.534 27.0159C171.476 29.9558 171.453 32.8962 171.43 35.8366C171.424 36.561 171.418 37.2855 171.412 38.01C171.4 39.4156 171.389 40.8212 171.378 42.2269C169.7 42.2269 168.022 42.2269 166.293 42.2269C166.293 31.8028 166.293 21.3787 166.293 10.6388C167.862 10.6388 169.43 10.6388 171.046 10.6388C171.119 11.9874 171.192 13.3359 171.268 14.7254C171.523 14.3609 171.778 13.9964 172.041 13.6209C173.446 11.8789 175.474 10.5554 177.717 10.2276C179.466 10.0458 181.278 10.0938 182.986 10.5284Z" fill="white"/>
<path d="M229.004 10.2937C232.936 10.2203 236.444 11.43 239.364 14.0627C239.475 14.1608 239.585 14.2589 239.696 14.3569C240.39 14.9767 240.39 14.9767 240.58 15.1672C240.617 13.6728 240.653 12.1785 240.691 10.6388C242.296 10.6388 243.901 10.6388 245.555 10.6388C245.555 21.0629 245.555 31.4869 245.555 42.2269C243.95 42.2269 242.345 42.2269 240.691 42.2269C240.655 40.769 240.618 39.3111 240.58 37.809C239.904 38.4004 239.904 38.4004 239.24 39.0032C235.83 42.0139 231.845 42.667 227.425 42.4478C226.699 42.3815 226.019 42.223 225.325 42.006C225.202 41.9705 225.202 41.9705 225.077 41.9343C223.837 41.5754 222.698 41.0783 221.566 40.4597C221.466 40.4053 221.365 40.3509 221.261 40.2949C217.642 38.2334 215.388 34.7497 214.242 30.821C213.081 26.5711 213.69 21.8705 215.835 18.0313C216.343 17.1687 216.933 16.3667 217.587 15.609C217.725 15.4488 217.725 15.4488 217.866 15.2854C220.468 12.3286 223.985 10.6601 227.888 10.342C228.26 10.3218 228.632 10.3078 229.004 10.2937ZM221.594 18.7912C220.031 20.6077 218.896 23.0173 218.803 25.4388C218.797 25.5651 218.791 25.6914 218.785 25.8215C218.709 29.0799 219.854 32.0507 222.074 34.4496C223.759 36.2048 226.217 37.5885 228.682 37.7181C231.168 37.7597 233.169 37.621 235.385 36.3731C235.495 36.3116 235.606 36.2501 235.719 36.1868C236.554 35.6893 237.231 35.0544 237.927 34.3851C238.037 34.2883 238.037 34.2883 238.148 34.1896C240.018 32.4855 241.071 29.5808 241.234 27.1037C241.372 23.7912 240.091 20.8534 237.89 18.415C235.935 16.3643 233.161 15.1004 230.327 15.0252C226.93 14.9878 223.928 16.3349 221.594 18.7912Z" fill="white"/>
<path d="M6 10.0865C14.9012 10.0865 23.8025 10.0865 32.9734 10.0865C32.9734 12.893 32.9734 15.6995 32.9734 18.591C30.1644 18.591 27.3554 18.591 24.4613 18.591C24.4613 26.3908 24.4613 34.1907 24.4613 42.2268C21.1416 42.2268 17.8219 42.2268 14.4016 42.2268C14.4016 34.427 14.4016 26.6272 14.4016 18.591C11.629 18.591 8.85653 18.591 6 18.591C6 15.7845 6 12.9781 6 10.0865Z" fill="white"/>
<path d="M83.9355 9.31342C84.1938 9.55288 84.3706 9.79239 84.5479 10.096C84.629 10.2341 84.629 10.2341 84.7117 10.3749C84.7995 10.526 84.7995 10.526 84.889 10.6802C84.9514 10.7867 85.0137 10.8931 85.078 11.0028C85.2145 11.2359 85.3508 11.4691 85.4869 11.7024C85.71 12.0844 85.9341 12.4657 86.1586 12.8469C86.9918 14.2625 87.8189 15.6813 88.6389 17.1046C89.0951 17.8962 89.5543 18.686 90.0156 19.4746C90.6236 20.5139 91.2266 21.556 91.828 22.5991C92.29 23.3999 92.7547 24.199 93.2215 24.997C93.9674 26.2724 94.7065 27.5515 95.4445 28.8315C95.7902 29.4311 96.1364 30.0305 96.4826 30.6298C96.6208 30.8691 96.759 31.1084 96.8972 31.3477C96.9656 31.4662 97.034 31.5847 97.1044 31.7067C99.3845 35.6552 99.3845 35.6552 99.592 36.0145C99.7294 36.2526 99.8669 36.4906 100.004 36.7287C100.324 37.2814 100.643 37.8341 100.962 38.3869C101.073 38.5802 101.185 38.7736 101.296 38.9669C101.435 39.2076 101.574 39.4484 101.713 39.6891C101.777 39.7996 101.841 39.9101 101.906 40.0239C101.999 40.1849 101.999 40.1849 102.094 40.3491C102.23 40.5838 102.368 40.8176 102.507 41.0509C102.578 41.1704 102.648 41.29 102.722 41.4132C102.786 41.5215 102.851 41.6299 102.918 41.7415C103.06 42.006 103.06 42.006 103.06 42.2268C102.404 42.2708 101.748 42.3027 101.09 42.3239C100.867 42.3328 100.644 42.3448 100.421 42.3602C98.634 42.4802 98.634 42.4802 98.1062 42.0717C97.7481 41.6614 97.5233 41.191 97.3068 40.6949C97.1507 40.3472 96.9568 40.0307 96.7607 39.7038C96.6216 39.4589 96.4829 39.2139 96.3444 38.9686C96.1911 38.6984 96.0374 38.4284 95.8837 38.1584C95.8456 38.0914 95.8075 38.0245 95.7683 37.9555C95.4009 37.3101 95.0271 36.6687 94.6517 36.028C93.7665 34.5164 92.8919 32.9988 92.017 31.4813C91.2792 30.2016 90.5402 28.9228 89.7945 27.6477C88.9076 26.1312 88.0304 24.6092 87.153 23.0872C86.9442 22.7252 86.7353 22.3631 86.5265 22.0011C86.459 21.884 86.3915 21.7669 86.322 21.6463C85.9693 21.035 85.6144 20.4251 85.2561 19.8172C85.184 19.6947 85.112 19.5723 85.0378 19.4462C84.8998 19.2119 84.7614 18.9779 84.6225 18.7441C84.5613 18.6401 84.5 18.536 84.4369 18.4288C84.3555 18.2914 84.3555 18.2914 84.2724 18.1512C84.1566 17.9283 84.1566 17.9283 84.1566 17.7074C83.8983 17.9469 83.7216 18.1864 83.5443 18.4901C83.4902 18.5821 83.4362 18.6741 83.3805 18.7689C83.2927 18.9201 83.2927 18.9201 83.2032 19.0742C83.1409 19.1805 83.0786 19.2868 83.0144 19.3964C82.878 19.6293 82.7418 19.8623 82.6058 20.0954C82.3811 20.4803 82.1556 20.8645 81.9297 21.2487C81.4553 22.0559 80.9817 22.8637 80.5086 23.6716C80.44 23.7887 80.3714 23.9059 80.3007 24.0265C79.5032 25.3888 78.7108 26.754 77.9223 28.1215C77.4604 28.9223 76.9957 29.7214 76.5289 30.5194C75.783 31.7948 75.0439 33.0739 74.3059 34.3539C73.8916 35.0723 73.4768 35.7904 73.062 36.5085C72.7078 37.1216 72.354 37.735 72.0008 38.3487C70.7584 40.5063 70.7584 40.5063 70.1863 41.4606C70.1461 41.5277 70.1059 41.5948 70.0646 41.6639C69.7999 42.102 69.7999 42.102 69.675 42.2268C69.5257 42.2371 69.3758 42.2398 69.2261 42.2394C69.1309 42.2394 69.0358 42.2394 68.9377 42.2394C68.8343 42.2388 68.7309 42.2382 68.6244 42.2376C68.519 42.2375 68.4137 42.2373 68.3051 42.2372C67.9672 42.2365 67.6293 42.2352 67.2913 42.2338C67.0628 42.2332 66.8343 42.2327 66.6058 42.2322C66.0444 42.231 65.4829 42.2291 64.9215 42.2268C65.4621 41.1242 66.0254 40.045 66.6419 38.9824C66.7187 38.8492 66.7955 38.7159 66.8722 38.5826C67.0679 38.2429 67.2641 37.9035 67.4605 37.5643C67.6406 37.2531 67.82 36.9417 67.9995 36.6303C68.3417 36.0369 68.6844 35.4438 69.0273 34.8509C69.3725 34.254 69.7172 33.6568 70.0619 33.0597C70.2001 32.8204 70.3383 32.5811 70.4765 32.3418C70.5449 32.2233 70.6133 32.1049 70.6837 31.9828C70.891 31.6239 71.0983 31.2649 71.3056 30.906C71.374 30.7875 71.4424 30.669 71.5129 30.5469C71.6509 30.3078 71.789 30.0687 71.9271 29.8296C72.2742 29.2287 72.6211 28.6277 72.9676 28.0265C73.6991 26.7583 74.4334 25.4918 75.1726 24.2281C75.6459 23.4184 76.1157 22.6066 76.5842 21.794C77.4344 20.3195 78.2927 18.8498 79.1521 17.3806C79.3441 17.0524 79.536 16.7242 79.7278 16.3959C79.7915 16.287 79.8551 16.1781 79.9207 16.066C80.3242 15.375 80.7245 14.6823 81.1233 13.9886C81.7702 12.8638 82.425 11.7445 83.0926 10.6319C83.2002 10.4524 83.2002 10.4524 83.31 10.2693C83.8107 9.43816 83.8107 9.43816 83.9355 9.31342Z" fill="white"/>
<path d="M277.061 6C278.63 6 280.198 6 281.814 6C281.814 7.42146 281.814 8.84293 281.814 10.3075C284.076 10.3075 286.338 10.3075 288.668 10.3075C288.672 11.3701 288.672 11.3701 288.675 12.4543C288.676 12.6782 288.677 12.902 288.678 13.1327C288.679 13.3091 288.679 13.4855 288.679 13.6619C288.68 13.7543 288.68 13.8468 288.681 13.942C288.681 14.1664 288.675 14.3907 288.668 14.6149C288.558 14.7254 288.558 14.7254 288.289 14.7387C288.169 14.7384 288.049 14.7382 287.926 14.7379C287.791 14.7379 287.656 14.7379 287.517 14.7379C287.369 14.7373 287.22 14.7367 287.072 14.7362C286.921 14.736 286.77 14.7358 286.619 14.7357C286.221 14.7353 285.822 14.7342 285.424 14.733C285.018 14.7318 284.612 14.7313 284.206 14.7308C283.409 14.7296 282.612 14.7277 281.814 14.7254C281.827 16.1554 281.839 17.5855 281.852 19.0155C281.858 19.6801 281.864 20.3447 281.869 21.0093C281.891 23.5631 281.913 26.1171 281.964 28.6704C281.968 28.869 281.972 29.0675 281.975 29.266C282.022 31.9952 282.374 34.7506 284.357 36.8149C285.697 38.0789 287.203 38.5785 289 38.803C289 40.0422 289 41.2814 289 42.5582C285.83 42.5582 282.925 41.9314 280.488 39.797C280.413 39.7314 280.337 39.6657 280.259 39.5981C278.988 38.4073 278.131 36.7855 277.579 35.1513C277.554 35.0759 277.528 35.0005 277.502 34.9228C277.422 34.6714 277.352 34.4187 277.282 34.1642C277.254 34.0654 277.226 33.9666 277.198 33.8647C276.883 32.6 276.888 31.3448 276.875 30.0483C276.871 29.7953 276.867 29.5423 276.864 29.2893C276.825 26.4929 276.827 23.6962 276.832 20.8995C276.833 20.2113 276.834 19.523 276.834 18.8348C276.836 17.5018 276.838 16.1688 276.84 14.8358C275.527 14.8358 274.213 14.8358 272.86 14.8358C272.86 13.3415 272.86 11.8471 272.86 10.3075C274.246 10.3075 275.633 10.3075 277.061 10.3075C277.061 8.886 277.061 7.46454 277.061 6Z" fill="white"/>
<path d="M269.433 10.197C269.433 11.6914 269.433 13.1857 269.433 14.7254C268.753 14.7459 268.753 14.7459 268.058 14.7668C264.551 14.8931 261.314 15.5897 258.753 18.203C256.82 20.3139 256.175 22.9387 256.193 25.7115C256.192 25.9486 256.191 26.1857 256.189 26.4228C256.187 26.923 256.186 27.4232 256.187 27.9234C256.189 28.7027 256.186 29.4819 256.183 30.2612C256.179 31.043 256.176 31.8247 256.175 32.6065C256.17 34.7429 256.146 36.8785 256.109 39.0145C256.103 39.4043 256.097 39.7942 256.091 40.184C256.08 40.865 256.068 41.5459 256.057 42.2269C254.342 42.2269 252.628 42.2269 250.861 42.2269C250.861 31.8028 250.861 21.3788 250.861 10.6388C252.466 10.6388 254.072 10.6388 255.725 10.6388C255.78 12.8804 255.78 12.8804 255.836 15.1672C256.128 14.8756 256.42 14.584 256.72 14.2836C258.485 12.7119 260.436 11.5629 262.69 10.8597C262.795 10.827 262.899 10.7942 263.007 10.7605C265.056 10.187 267.322 10.197 269.433 10.197Z" fill="white"/>
<path d="M83.9355 22.8985C84.2368 23.2609 84.4918 23.6229 84.7253 24.0319C84.7902 24.1449 84.855 24.2578 84.9218 24.3742C84.9908 24.4955 85.0598 24.6167 85.1308 24.7416C85.2043 24.87 85.2779 24.9983 85.3515 25.1267C85.5042 25.393 85.6567 25.6595 85.8091 25.9261C86.159 26.5379 86.5122 27.148 86.865 27.7582C87.0034 27.9978 87.1417 28.2374 87.28 28.477C87.5548 28.9528 87.8297 29.4285 88.1048 29.9042C88.856 31.2034 89.6041 32.5043 90.3484 33.8074C90.9467 34.8549 91.5487 35.9002 92.1529 36.9443C92.5227 37.5838 92.8909 38.2242 93.2569 38.866C93.3167 38.9708 93.3167 38.9708 93.3777 39.0777C93.5704 39.4154 93.7628 39.7532 93.9549 40.0912C94.2527 40.6136 94.5508 41.1329 94.8754 41.6392C95.1008 42.006 95.1008 42.006 95.1008 42.2269C94.4284 42.2736 93.757 42.3074 93.0833 42.33C92.8548 42.3394 92.6264 42.3522 92.3983 42.3685C90.5629 42.4964 90.5629 42.4964 90.0319 42.0576C89.6698 41.6147 89.4444 41.1145 89.2305 40.5874C89.0958 40.2643 88.924 39.9683 88.7469 39.6667C88.6308 39.4571 88.5148 39.2474 88.3989 39.0377C87.7797 37.9252 87.1382 36.8277 86.4856 35.7345C85.6951 34.4092 84.9248 33.0726 84.1566 31.7343C84.0472 31.7343 83.9377 31.7343 83.825 31.7343C83.7829 31.8074 83.7407 31.8805 83.6973 31.9559C82.9324 33.2829 82.1664 34.6092 81.393 35.9313C80.9207 36.7388 80.4493 37.5468 79.9834 38.358C79.8414 38.6028 79.6971 38.8463 79.5505 39.0883C79.1643 39.7323 78.8625 40.3199 78.6869 41.0526C78.4636 41.5364 78.1719 41.9052 77.7449 42.2269C77.3654 42.3502 77.0093 42.3571 76.6122 42.355C76.5066 42.3576 76.4009 42.3601 76.2921 42.3628C75.1898 42.3806 74.0896 42.3145 72.9914 42.2269C73.0752 41.8671 73.1961 41.5811 73.3727 41.2553C73.4292 41.1508 73.4857 41.0463 73.5439 40.9386C73.6055 40.8261 73.6672 40.7136 73.7307 40.5978C73.7948 40.4801 73.8589 40.3624 73.925 40.2411C74.434 39.3131 74.9631 38.3978 75.5004 37.4859C75.9644 36.6973 76.4155 35.9024 76.8605 35.103C77.4312 34.0786 78.0157 33.0634 78.6094 32.0523C79.047 31.306 79.4763 30.5555 79.9006 29.8015C80.4479 28.8293 81.0056 27.8638 81.5699 26.9013C81.9252 26.2951 82.2787 25.6879 82.6293 25.079C82.6867 24.9793 82.6867 24.9793 82.7453 24.8776C82.9319 24.5535 83.1182 24.2293 83.3044 23.9049C83.3709 23.7893 83.4374 23.6738 83.5059 23.5547C83.5944 23.4004 83.5944 23.4004 83.6848 23.243C83.825 23.0089 83.825 23.0089 83.9355 22.8985Z" fill="white"/>
</g>
<defs>
<filter id="filter0_d_114_28" x="0.0999999" y="0.0999999" width="294.8" height="48.8" filterUnits="userSpaceOnUse" color-interpolation-filters="sRGB">
<feFlood flood-opacity="0" result="BackgroundImageFix"/>
<feColorMatrix in="SourceAlpha" type="matrix" values="0 0 0 0 0 0 0 0 0 0 0 0 0 0 0 0 0 0 127 0" result="hardAlpha"/>
<feOffset/>
<feGaussianBlur stdDeviation="2.95"/>
<feColorMatrix type="matrix" values="0 0 0 0 0 0 0 0 0 0 0 0 0 0 0 0 0 0 0.25 0"/>
<feBlend mode="normal" in2="BackgroundImageFix" result="effect1_dropShadow_114_28"/>
<feBlend mode="normal" in="SourceGraphic" in2="effect1_dropShadow_114_28" result="shape"/>
</filter>
<clipPath id="clip0_114_28">
<rect width="283" height="37" fill="white" transform="translate(6 6)"/>
</clipPath>
</defs>
</svg>
