<svg width="320" height="418" viewBox="0 0 320 418" fill="none" xmlns="http://www.w3.org/2000/svg">
<path d="M157.859 0.525879C160.517 1.8519 160.758 3.3399 162.107 6.96301C162.538 8.11001 162.97 9.25702 163.414 10.4388C163.756 11.3604 163.756 11.3604 164.104 12.3007C165.062 14.8898 166.034 17.4676 167.004 20.0463C167.502 21.3689 167.999 22.692 168.495 24.0158C170.776 30.1003 173.114 36.1328 175.47 42.1524C175.854 43.1354 176.238 44.1184 176.634 45.1312C177.406 47.1065 178.178 49.0815 178.95 51.0562C184.623 65.5637 190.268 80.0953 195.874 94.6615C200.251 106.028 204.669 117.358 209.091 128.685C214.374 142.214 219.635 155.759 224.86 169.337C228.851 179.702 232.877 190.036 236.909 200.366C239.268 206.409 241.623 212.456 243.978 218.502C245.935 223.524 247.892 228.544 249.851 233.563C254.353 245.099 258.829 256.655 263.284 268.231C267.661 279.598 272.08 290.928 276.502 302.255C278.062 306.249 279.621 310.243 281.179 314.238C281.567 315.235 281.956 316.231 282.356 317.257C285.226 324.623 288.071 332.011 290.911 339.403C294.361 348.381 297.862 357.309 301.402 366.208C306.571 379.205 311.591 392.321 316.574 405.479C317.283 407.328 318.016 409.158 318.77 410.967C319.645 413.259 319.645 413.259 319.645 415.277C314.183 415.733 308.728 416.047 303.259 416.19C300.717 416.26 298.184 416.376 295.647 416.602C279.341 418.011 279.341 418.011 274.695 411.886C271.626 405.921 269.744 399.36 267.976 392.358C266.462 386.847 264.376 381.875 262.304 376.804C261.514 374.796 260.726 372.786 259.942 370.773C259.364 369.294 259.364 369.294 258.775 367.784C256.534 361.997 254.351 356.16 252.162 350.329C249.549 343.388 246.88 336.499 244.187 329.628C240.962 321.397 237.808 313.115 234.708 304.778C231.272 295.54 227.758 286.379 224.185 277.259C220.905 268.88 217.683 260.452 214.472 252.013C211.337 243.775 208.167 235.569 204.963 227.39C201.37 218.217 197.882 208.965 194.426 199.675C191.379 191.501 188.248 183.407 185.085 175.333C182.056 167.592 179.071 159.815 176.102 152.021C175.653 150.842 175.204 149.663 174.754 148.484C174.531 147.9 174.309 147.316 174.079 146.714C173.856 146.129 173.633 145.544 173.403 144.941C173.18 144.356 172.957 143.77 172.727 143.167C170.386 137.029 168.045 130.891 165.694 124.762C165.035 123.043 164.378 121.321 163.721 119.599C163.325 118.568 162.928 117.536 162.52 116.473C161.998 115.11 161.998 115.11 161.466 113.719C160.591 111.43 160.591 111.43 159.208 109.512C158.934 110.23 158.66 110.949 158.378 111.689C151.308 130.239 144.198 148.752 137.06 167.243C132.061 180.196 127.078 193.162 122.125 206.156C118.472 215.738 114.796 225.3 111.108 234.852C107.78 243.478 104.48 252.127 101.184 260.78C97.6626 270.023 94.0937 279.222 90.5012 288.404C87.8579 295.173 85.264 301.98 82.6965 308.814C79.7508 316.655 76.7595 324.451 73.7224 332.213C69.1482 343.907 64.6515 355.664 60.1699 367.438C58.5241 371.761 56.8749 376.081 55.224 380.399C54.7468 381.648 54.2697 382.896 53.7925 384.145C52.9039 386.47 52.0149 388.795 51.1257 391.12C47.8016 399.822 44.5221 408.558 41.2389 417.295C27.6691 417.295 14.0994 417.295 0.118408 417.295C1.14477 412.686 2.06069 409.386 3.64957 405.284C4.08688 404.148 4.52418 403.012 4.97474 401.841C5.44849 400.623 5.92225 399.404 6.39603 398.185C6.88514 396.917 7.37381 395.649 7.86208 394.381C8.60621 392.448 9.35057 390.515 10.0963 388.583C12.3579 382.724 14.5844 376.835 16.8025 370.939C20.5078 361.107 24.2426 351.301 27.9888 341.503C29.8755 336.568 31.7597 331.63 33.6441 326.693C34.7958 323.675 35.9476 320.658 37.0995 317.64C37.566 316.418 38.0325 315.196 38.499 313.974C39.4163 311.571 40.3335 309.168 41.2508 306.765C41.5846 305.89 41.5846 305.89 41.9252 304.998C42.3735 303.824 42.8218 302.649 43.27 301.475C44.389 298.544 45.5079 295.612 46.6267 292.681C48.6671 287.335 50.7079 281.989 52.7506 276.645C57.1322 265.182 61.5088 253.715 65.8438 242.212C70.4075 230.102 75.0177 218.033 79.6304 205.965C80.9929 202.4 82.3544 198.834 83.7155 195.268C83.9376 194.686 84.1596 194.104 84.3884 193.505C85.0603 191.744 85.7322 189.984 86.4041 188.224C88.8921 181.704 91.3802 175.185 93.8711 168.668C95.0197 165.663 96.168 162.658 97.3162 159.653C97.5414 159.063 97.7667 158.474 97.9988 157.866C101.034 149.921 104.049 141.958 107.049 133.983C109.976 126.201 112.96 118.474 115.98 110.773C119.796 101.042 123.473 91.2073 127.115 81.3285C130.269 72.7946 133.524 64.36 136.825 55.9518C140.059 47.6954 143.193 39.3609 146.305 31.0005C150.105 20.7977 153.973 10.6549 157.859 0.525879ZM157.859 174.096C160.444 175.385 160.627 176.593 161.907 180.119C162.291 181.165 162.676 182.212 163.072 183.29C163.479 184.419 163.886 185.547 164.306 186.71C165.163 189.046 166.021 191.38 166.881 193.715C167.3 194.857 167.719 195.999 168.151 197.176C169.606 201.107 171.111 204.987 172.648 208.848C175.436 215.881 178.178 222.953 180.905 230.039C181.335 231.157 181.766 232.274 182.209 233.425C183.09 235.716 183.972 238.008 184.854 240.3C186.976 245.816 189.102 251.33 191.228 256.844C192.07 259.031 192.913 261.217 193.756 263.404C194.381 265.027 194.381 265.027 195.019 266.683C206.395 296.2 217.771 325.717 229.146 355.234C229.564 356.317 229.981 357.401 230.411 358.517C231.25 360.693 232.089 362.87 232.928 365.046C235.539 371.822 238.151 378.597 240.764 385.372C242.039 388.68 243.313 391.99 244.587 395.3C245.945 398.825 247.306 402.348 248.674 405.864C249.173 407.152 249.671 408.439 250.17 409.727C250.579 410.778 250.988 411.829 251.41 412.912C252.234 415.277 252.234 415.277 252.234 417.295C238.665 417.295 225.095 417.295 211.114 417.295C207.999 408.637 204.885 399.979 201.676 391.058C198.693 383.208 198.693 383.208 195.691 375.373C193.29 369.116 190.952 362.807 188.615 356.496C184.961 346.622 181.29 336.763 177.599 326.919C175.517 321.362 173.446 315.796 171.389 310.218C170.94 309.003 170.492 307.788 170.043 306.573C169.198 304.285 168.356 301.994 167.515 299.703C164.67 291.995 161.654 284.489 158.533 277.027C158.29 277.705 158.046 278.384 157.796 279.083C153.227 291.807 148.649 304.521 144.021 317.197C141.545 323.981 139.082 330.775 136.625 337.574C133.496 346.23 130.355 354.874 127.204 363.511C125.442 368.342 123.685 373.177 121.937 378.018C121.561 379.058 121.186 380.097 120.799 381.168C120.095 383.12 119.391 385.072 118.687 387.026C115.393 396.152 112.016 405.198 108.65 414.268C94.4124 414.268 80.1753 414.268 65.5068 414.268C66.0832 410.817 66.6397 408.737 67.7845 405.718C68.2907 404.378 68.2907 404.378 68.8072 403.011C69.1779 402.043 69.5486 401.075 69.9306 400.077C70.3187 399.056 70.7068 398.036 71.1066 396.984C74.5469 387.975 78.0803 379.051 81.6261 370.135C86.446 358.005 91.1459 345.775 95.8416 333.538C100.982 320.151 106.139 306.782 111.404 293.503C114.231 286.361 117.008 279.177 119.772 271.981C123.235 262.968 126.738 253.995 130.283 245.055C133.067 238.021 135.8 230.946 138.521 223.858C142.577 213.293 146.702 202.795 150.872 192.33C153.269 186.305 155.618 180.254 157.859 174.096Z" fill="white"/>
</svg>
