<svg width="50" height="44" viewBox="0 0 50 44" fill="none" xmlns="http://www.w3.org/2000/svg">
<path d="M24.6835 0C25.0994 0.139969 25.1372 0.297036 25.3482 0.679475C25.4157 0.800548 25.4832 0.921621 25.5528 1.04636C25.6062 1.14365 25.6062 1.14365 25.6607 1.2429C25.8106 1.5162 25.9627 1.78829 26.1145 2.06049C26.1924 2.20009 26.2701 2.33976 26.3478 2.47949C26.7047 3.12174 27.0706 3.75851 27.4393 4.39391C27.4994 4.49768 27.5595 4.60144 27.6214 4.70835C27.7422 4.91685 27.863 5.12532 27.9838 5.33376C28.8716 6.86511 29.7549 8.399 30.6321 9.93654C31.317 11.1364 32.0084 12.3323 32.7004 13.5279C33.527 14.9559 34.3503 16.3857 35.1679 17.819C35.7925 18.913 36.4224 20.0039 37.0534 21.0942C37.4225 21.7321 37.7909 22.3704 38.1595 23.0086C38.4657 23.5387 38.772 24.0686 39.0786 24.5984C39.783 25.816 40.4835 27.0359 41.1806 28.2578C41.8655 29.4576 42.5569 30.6536 43.2489 31.8492C43.493 32.2708 43.7369 32.6924 43.9807 33.1141C44.0416 33.2193 44.1024 33.3244 44.165 33.4328C44.6141 34.2103 45.0593 34.9901 45.5037 35.7704C46.0436 36.7181 46.5914 37.6605 47.1453 38.5998C47.9542 39.9717 48.7397 41.3562 49.5195 42.7451C49.6304 42.9403 49.7451 43.1334 49.8631 43.3244C50 43.5663 50 43.5663 50 43.7793C49.1453 43.8275 48.2917 43.8606 47.4358 43.8756C47.0381 43.8831 46.6418 43.8953 46.2447 43.9192C43.6932 44.0679 43.6932 44.0679 42.9662 43.4214C42.4859 42.7917 42.1914 42.0992 41.9148 41.36C41.6779 40.7784 41.3515 40.2535 41.0272 39.7183C40.9036 39.5063 40.7803 39.2941 40.6576 39.0817C40.5672 38.9255 40.5672 38.9255 40.475 38.7662C40.1242 38.1553 39.7827 37.5392 39.4401 36.9237C39.0313 36.191 38.6137 35.4639 38.1922 34.7385C37.6876 33.8697 37.194 32.9956 36.7089 32.1155C36.1712 31.1404 35.6215 30.1734 35.0623 29.2108C34.5491 28.3263 34.0449 27.4367 33.5424 26.5459C33.0518 25.6763 32.5558 24.8101 32.0543 23.9468C31.4922 22.9785 30.9463 22.002 30.4056 21.0213C29.9288 20.1585 29.4389 19.3042 28.9439 18.4519C28.4699 17.6348 28.0027 16.8138 27.5382 15.9912C27.4679 15.8667 27.3976 15.7423 27.3273 15.6179C27.2924 15.5562 27.2576 15.4945 27.2217 15.431C27.1868 15.3693 27.1518 15.3075 27.1159 15.2439C27.081 15.1821 27.046 15.1203 27.01 15.0566C26.6438 14.4087 26.2775 13.7608 25.9095 13.1139C25.8064 12.9323 25.7036 12.7506 25.6008 12.5689C25.5388 12.46 25.4768 12.3511 25.4129 12.2389C25.3312 12.095 25.3312 12.095 25.2479 11.9482C25.111 11.7065 25.111 11.7065 24.8945 11.5041C24.8517 11.5799 24.8088 11.6558 24.7647 11.7339C23.6584 13.6919 22.5459 15.6461 21.4289 17.5979C20.6465 18.9652 19.8668 20.3339 19.0918 21.7054C18.5202 22.7168 17.9449 23.7261 17.3678 24.7344C16.847 25.6449 16.3306 26.5579 15.8149 27.4713C15.2639 28.4469 14.7054 29.418 14.1432 30.3871C13.7296 31.1016 13.3237 31.8202 12.9219 32.5416C12.461 33.3692 11.9929 34.1921 11.5177 35.0115C10.8019 36.2458 10.0982 37.4869 9.39694 38.7296C9.1394 39.1859 8.88134 39.6419 8.62301 40.0978C8.54834 40.2296 8.47367 40.3614 8.399 40.4932C8.25995 40.7386 8.12084 40.984 7.9817 41.2294C7.46154 42.148 6.94836 43.0701 6.4346 43.9924C4.31118 43.9924 2.18776 43.9924 0 43.9924C0.160606 43.5058 0.303931 43.1575 0.552561 42.7246C0.620992 42.6046 0.689422 42.4847 0.759926 42.3611C0.834059 42.2325 0.908194 42.1038 0.982331 41.9752C1.05887 41.8414 1.13534 41.7075 1.21174 41.5736C1.32818 41.3696 1.44466 41.1656 1.56135 40.9617C1.91525 40.3431 2.26366 39.7216 2.61076 39.0992C3.19057 38.0613 3.77498 37.0262 4.36121 35.9921C4.65643 35.4711 4.95127 34.9499 5.24615 34.4287C5.42637 34.1102 5.60661 33.7917 5.78685 33.4732C5.85986 33.3442 5.93286 33.2152 6.00586 33.0862C6.14939 32.8325 6.29292 32.5789 6.43645 32.3253C6.48869 32.2329 6.48869 32.2329 6.54199 32.1388C6.61214 32.0148 6.68228 31.8908 6.75243 31.7669C6.92753 31.4575 7.10261 31.1481 7.27768 30.8386C7.59697 30.2743 7.91633 29.71 8.23597 29.1459C8.9216 27.9359 9.60647 26.7255 10.2848 25.5113C10.9989 24.2331 11.7204 22.9591 12.4422 21.6852C12.6554 21.3089 12.8684 20.9325 13.0814 20.5561C13.1162 20.4947 13.1509 20.4333 13.1867 20.37C13.2918 20.1842 13.397 19.9984 13.5021 19.8125C13.8914 19.1244 14.2808 18.4363 14.6706 17.7484C14.8503 17.4312 15.03 17.114 15.2097 16.7967C15.2449 16.7345 15.2802 16.6723 15.3165 16.6081C15.7914 15.7695 16.2632 14.929 16.7326 14.0871C17.1906 13.2657 17.6576 12.4501 18.1303 11.6372C18.7273 10.61 19.3027 9.57194 19.8726 8.52917C20.3661 7.62837 20.8755 6.73805 21.392 5.85051C21.8981 4.97901 22.3885 4.09925 22.8755 3.21677C23.4701 2.1398 24.0754 1.06917 24.6835 0ZM24.6835 18.3213C25.088 18.4574 25.1167 18.5849 25.3169 18.9571C25.377 19.0675 25.4372 19.178 25.4992 19.2918C25.5629 19.4109 25.6266 19.53 25.6922 19.6528C25.8264 19.8993 25.9608 20.1458 26.0952 20.3922C26.1608 20.5127 26.2264 20.6333 26.2939 20.7575C26.5216 21.1725 26.7572 21.582 26.9976 21.9895C27.434 22.7319 27.863 23.4784 28.2898 24.2264C28.3571 24.3444 28.4244 24.4623 28.4938 24.5838C28.6317 24.8257 28.7697 25.0676 28.9076 25.3095C29.2398 25.8918 29.5725 26.4738 29.9051 27.0558C30.0369 27.2866 30.1688 27.5174 30.3006 27.7482C30.3985 27.9196 30.3985 27.9196 30.4984 28.0944C32.2785 31.2101 34.0585 34.3258 35.8386 37.4415C35.9039 37.5558 35.9693 37.6701 36.0366 37.788C36.1678 38.0177 36.2991 38.2475 36.4303 38.4772C36.8389 39.1924 37.2477 39.9076 37.6566 40.6227C37.8561 40.9719 38.0555 41.3212 38.2549 41.6706C38.4673 42.0428 38.6803 42.4146 38.8944 42.7857C38.9724 42.9216 39.0504 43.0576 39.1284 43.1935C39.1925 43.3044 39.2565 43.4154 39.3225 43.5297C39.4515 43.7793 39.4515 43.7793 39.4515 43.9924C37.3281 43.9924 35.2046 43.9924 33.0169 43.9924C32.5295 43.0784 32.0422 42.1645 31.5401 41.2229C31.0733 40.3942 31.0733 40.3942 30.6035 39.5673C30.2278 38.9068 29.8619 38.2408 29.4963 37.5746C28.9244 36.5324 28.35 35.4917 27.7725 34.4527C27.4467 33.866 27.1225 33.2786 26.8007 32.6897C26.7305 32.5615 26.6603 32.4333 26.5901 32.305C26.4579 32.0635 26.3261 31.8217 26.1945 31.5798C25.7493 30.7662 25.2773 29.974 24.789 29.1862C24.7509 29.2579 24.7128 29.3295 24.6736 29.4033C23.9587 30.7464 23.2422 32.0884 22.5181 33.4264C22.1307 34.1425 21.7453 34.8597 21.3608 35.5774C20.8712 36.491 20.3797 37.4035 19.8865 38.3151C19.6108 38.8251 19.3359 39.3354 19.0623 39.8465C19.0036 39.9562 18.9449 40.0659 18.8843 40.1789C18.7741 40.385 18.6639 40.5911 18.5539 40.7972C18.0384 41.7606 17.5099 42.7154 16.9831 43.6728C14.7553 43.6728 12.5274 43.6728 10.2321 43.6728C10.3223 43.3085 10.4094 43.089 10.5885 42.7703C10.6677 42.6289 10.6677 42.6289 10.7485 42.4845C10.8065 42.3824 10.8645 42.2802 10.9243 42.1749C10.985 42.0672 11.0458 41.9594 11.1083 41.8484C11.6467 40.8975 12.1996 39.9554 12.7544 39.0143C13.5087 37.734 14.2441 36.443 14.9789 35.1513C15.7834 33.7382 16.5903 32.327 17.4142 30.9254C17.8565 30.1715 18.291 29.4132 18.7236 28.6536C19.2655 27.7023 19.8137 26.7551 20.3684 25.8114C20.804 25.069 21.2317 24.3222 21.6574 23.574C22.2921 22.4588 22.9376 21.3506 23.5901 20.246C23.9652 19.6101 24.3328 18.9713 24.6835 18.3213Z" fill="white"/>
</svg>
