<svg width="145" height="47" viewBox="0 0 145 47" fill="none" xmlns="http://www.w3.org/2000/svg">
<path d="M123.666 46H115.699C115.285 46 115.078 45.8526 115.078 45.5579L115 1.50526C115 1.16842 115.207 1 115.622 1H122.811L136.256 26.4842L135.868 1.50526C135.868 1.16842 136.101 1 136.567 1H144.456C144.767 1 144.922 1.16842 144.922 1.50526L145 45.6211C145 45.8737 144.87 46 144.611 46H137.617L123.821 22.1895L124.404 45.4947C124.404 45.8316 124.158 46 123.666 46Z" fill="white"/>
<path d="M47.9813 47C45.2167 47 42.6887 46.4024 40.3973 45.2071C38.1308 44.0118 36.325 42.411 34.9801 40.4046C33.66 38.3769 33 36.1251 33 33.6492L33.0747 13.1907C33.0747 10.7575 33.7223 8.55904 35.0174 6.59537C36.3126 4.61035 38.0934 3.02021 40.3599 1.82493C42.6513 0.608311 45.1918 0 47.9813 0C50.8207 0 53.3487 0.586966 55.5654 1.7609C57.807 2.93483 59.5878 4.52498 60.9078 6.53134C62.2528 8.51635 62.9253 10.7361 62.9253 13.1907V16.2003C62.9253 16.371 62.8257 16.4564 62.6264 16.4564H54.0336C53.8344 16.4564 53.7347 16.371 53.7347 16.2003V13.1907C53.7347 11.7393 53.1868 10.4907 52.0909 9.44482C50.995 8.39896 49.6252 7.87602 47.9813 7.87602C46.1631 7.87602 44.7684 8.40963 43.797 9.47684C42.8257 10.5441 42.34 11.782 42.34 13.1907V33.6492C42.34 35.25 42.8879 36.5627 43.9838 37.5872C45.0797 38.5904 46.4122 39.092 47.9813 39.092C49.6252 39.092 50.995 38.537 52.0909 37.4271C53.1868 36.2959 53.7347 35.0366 53.7347 33.6492V30.6076C53.7347 30.4369 53.8344 30.3515 54.0336 30.3515H62.7011C62.9004 30.3515 63 30.4369 63 30.6076V33.6492C63 36.1038 62.3275 38.3449 60.9826 40.3726C59.6127 42.379 57.807 43.9905 55.5654 45.2071C53.3238 46.4024 50.7958 47 47.9813 47Z" fill="white"/>
<path d="M14.9813 47C12.2665 47 9.76339 46.4015 7.47198 45.2046C5.20548 44.0077 3.3873 42.4154 2.01743 40.4277C0.672478 38.4186 0 36.2171 0 33.8233V30.8097C0 30.5746 0.124533 30.457 0.373599 30.457H8.96638C9.16563 30.457 9.26525 30.5746 9.26525 30.8097V33.8233C9.26525 35.2553 9.82565 36.495 10.9465 37.5423C12.0672 38.5682 13.4122 39.0812 14.9813 39.0812C16.5753 39.0812 17.9328 38.5575 19.0535 37.5102C20.1743 36.4416 20.7347 35.2126 20.7347 33.8233C20.7347 32.2203 19.5143 30.8204 17.0735 29.6235C16.675 29.4097 16.1519 29.1532 15.5044 28.854C14.8817 28.5334 14.1345 28.1701 13.2628 27.764C12.391 27.3579 11.5442 26.9625 10.7223 26.5778C9.90037 26.1717 9.10336 25.7869 8.33126 25.4236C5.54172 24.013 3.46202 22.2497 2.09215 20.1337C0.747198 17.9964 0.0747198 15.6025 0.0747198 12.9523C0.0747198 10.5157 0.772105 8.31423 2.16687 6.34789C3.56164 4.40291 5.37983 2.86403 7.62142 1.73124C9.88792 0.57708 12.3412 0 14.9813 0C17.6961 0 20.1868 0.57708 22.4533 1.73124C24.7198 2.90678 26.5255 4.46703 27.8705 6.41201C29.2403 8.35698 29.9253 10.5371 29.9253 12.9523V18.3383C29.9253 18.5093 29.8257 18.5948 29.6264 18.5948H21.0336C20.8344 18.5948 20.7347 18.5093 20.7347 18.3383L20.66 12.9523C20.66 11.4134 20.0996 10.163 18.9788 9.20123C17.858 8.23943 16.5255 7.75853 14.9813 7.75853C13.4122 7.75853 12.0672 8.27149 10.9465 9.29741C9.82565 10.3233 9.26525 11.5416 9.26525 12.9523C9.26525 14.3843 9.61395 15.5812 10.3113 16.543C11.0336 17.5048 12.3412 18.4238 14.2341 19.3001C14.4334 19.3856 14.8941 19.5994 15.6164 19.9413C16.3387 20.2833 17.1357 20.668 18.0075 21.0955C18.9041 21.5016 19.7136 21.8756 20.4359 22.2176C21.1582 22.5382 21.594 22.7306 21.7435 22.7947C24.2839 24.013 26.2889 25.5091 27.7584 27.2831C29.2528 29.0571 30 31.2372 30 33.8233C30 36.324 29.3275 38.5682 27.9826 40.5559C26.6127 42.5437 24.7945 44.1146 22.528 45.2688C20.2615 46.4229 17.746 47 14.9813 47Z" fill="white"/>
</svg>
